<mxfile host="app.diagrams.net" modified="2023-08-07T10:52:31.545Z" agent="Mozilla/5.0 (Windows NT 10.0; Win64; x64) AppleWebKit/537.36 (KHTML, like Gecko) Chrome/115.0.0.0 Safari/537.36" etag="1HTkFpDwYqi82qh6LdRw" version="21.3.5" type="github">
  <diagram name="Page-1" id="hcokLjG6bYneJuV_jAvE">
    <mxGraphModel dx="2084" dy="637" grid="1" gridSize="10" guides="1" tooltips="1" connect="1" arrows="1" fold="1" page="1" pageScale="1" pageWidth="827" pageHeight="1169" math="0" shadow="0">
      <root>
        <mxCell id="0" />
        <mxCell id="1" parent="0" />
        <mxCell id="lQtnooczzp_Vnvh4pjdG-1" value="" style="rounded=0;whiteSpace=wrap;html=1;" vertex="1" parent="1">
          <mxGeometry x="-20" width="680" height="600" as="geometry" />
        </mxCell>
        <mxCell id="lQtnooczzp_Vnvh4pjdG-2" value="" style="rounded=0;whiteSpace=wrap;html=1;" vertex="1" parent="1">
          <mxGeometry x="150" y="40" width="470" height="530" as="geometry" />
        </mxCell>
        <mxCell id="lQtnooczzp_Vnvh4pjdG-3" value="Administrateur&amp;nbsp;&lt;br&gt;sociÃ©te&lt;br&gt;" style="shape=umlActor;verticalLabelPosition=bottom;verticalAlign=top;html=1;outlineConnect=0;" vertex="1" parent="1">
          <mxGeometry x="60" y="230" width="30" height="60" as="geometry" />
        </mxCell>
      </root>
    </mxGraphModel>
  </diagram>
</mxfile>
